<?xml version="1.0" standalone="no"?><!DOCTYPE svg PUBLIC "-//W3C//DTD SVG 1.1//EN" "http://www.w3.org/Graphics/SVG/1.1/DTD/svg11.dtd"><svg t="1584925042330" class="icon" viewBox="0 0 1024 1024" version="1.1" xmlns="http://www.w3.org/2000/svg" p-id="1414" xmlns:xlink="http://www.w3.org/1999/xlink" width="200" height="200"><defs><style type="text/css"></style></defs><path d="M494.933333 443.733333v40.96l-44.373333-20.48c-6.826667-3.413333-17.066667 0-23.893333 6.826667-3.413333 6.826667 0 17.066667 6.826666 23.893333l37.546667 20.48-37.546667 20.48c-6.826667 3.413333-10.24 13.653333-6.826666 23.893334 3.413333 6.826667 10.24 10.24 13.653333 10.24 3.413333 0 6.826667 0 6.826667-3.413334l44.373333-20.48v34.133334c0 10.24 6.826667 17.066667 17.066667 17.066666s17.066667-6.826667 17.066666-17.066666v-40.96l44.373334 20.48c3.413333 0 3.413333 3.413333 6.826666 3.413333 6.826667 0 13.653333-3.413333 13.653334-10.24 3.413333-6.826667 0-17.066667-6.826667-23.893333l-34.133333-17.066667 37.546666-20.48c6.826667-3.413333 10.24-13.653333 6.826667-23.893333-3.413333-6.826667-13.653333-10.24-23.893333-6.826667l-44.373334 20.48V443.733333c0-10.24-6.826667-17.066667-17.066666-17.066666s-13.653333 6.826667-13.653334 17.066666z" fill="#707070" p-id="1415"></path><path d="M938.666667 631.466667l-102.4 51.2-51.2-34.133334 81.92-40.96c6.826667-3.413333 10.24-13.653333 6.826666-23.893333-3.413333-6.826667-13.653333-10.24-23.893333-6.826667l-102.4 51.2-47.786667-27.306666h-3.413333v-177.493334h3.413333l47.786667-27.306666 102.4 51.2c3.413333 0 3.413333 3.413333 6.826667 3.413333 6.826667 0 13.653333-3.413333 13.653333-10.24 3.413333-6.826667 0-17.066667-6.826667-23.893333L785.066667 375.466667l54.613333-30.72 102.4 51.2c3.413333 0 3.413333 3.413333 6.826667 3.413333 6.826667 0 13.653333-3.413333 13.653333-10.24 3.413333-6.826667 0-17.066667-6.826667-23.893333l-81.92-40.96 61.44-34.133334c6.826667-3.413333 10.24-13.653333 6.826667-23.893333-3.413333-6.826667-13.653333-10.24-23.893333-6.826667l-61.44 34.133334 6.826666-92.16c0-10.24-6.826667-17.066667-17.066666-17.066667-6.826667 0-17.066667 6.826667-17.066667 17.066667L819.2 314.026667l-54.613333 30.72 6.826666-92.16c0-10.24-6.826667-17.066667-17.066666-17.066667s-17.066667 6.826667-17.066667 17.066667l-6.826667 112.64-44.373333 27.306666-157.013333-95.573333V249.173333l95.573333-64.853333c6.826667-6.826667 10.24-17.066667 3.413333-23.893333-6.826667-6.826667-17.066667-10.24-23.893333-3.413334l-75.093333 51.2V146.773333l95.573333-64.853333c6.826667-6.826667 10.24-17.066667 3.413333-23.893333-6.826667-6.826667-17.066667-10.24-23.893333-3.413334l-75.093333 51.2V34.133333c0-10.24-6.826667-17.066667-17.066667-17.066666s-17.066667 6.826667-17.066667 17.066666v71.68l-75.093333-51.2c-6.826667-6.826667-17.066667-3.413333-23.893333 3.413334s-3.413333 17.066667 3.413333 23.893333l95.573333 64.853333v61.44l-75.093333-51.2c-6.826667-6.826667-17.066667-3.413333-23.893333 3.413334-6.826667 6.826667-3.413333 17.066667 3.413333 23.893333l95.573333 64.853333v47.786667l-157.013333 95.573333-44.373333-27.306666-10.24-112.64c0-10.24-10.24-17.066667-17.066667-17.066667-10.24 0-17.066667 10.24-17.066667 17.066667l6.826667 92.16L204.8 314.026667l-10.24-112.64c0-10.24-10.24-17.066667-17.066667-17.066667-10.24 0-17.066667 10.24-17.066666 17.066667l6.826666 92.16-61.44-34.133334c-6.826667-6.826667-17.066667-3.413333-23.893333 3.413334-3.413333 10.24 0 20.48 6.826667 23.893333l61.44 34.133333L68.266667 361.813333c-6.826667 3.413333-10.24 13.653333-6.826667 23.893334 3.413333 6.826667 10.24 10.24 13.653333 10.24 3.413333 0 6.826667 0 6.826667-3.413334l102.4-51.2L238.933333 375.466667l-81.92 40.96c-6.826667 3.413333-10.24 13.653333-6.826666 23.893333 3.413333 6.826667 10.24 10.24 13.653333 10.24 3.413333 0 6.826667 0 6.826667-3.413333l102.4-51.2 47.786666 27.306666h3.413334v177.493334h-3.413334l-47.786666 27.306666-102.4-51.2c-6.826667-3.413333-17.066667 0-23.893334 6.826667-3.413333 6.826667 0 17.066667 6.826667 23.893333L238.933333 648.533333l-54.613333 30.72-102.4-51.2c-6.826667-3.413333-17.066667 0-23.893333 6.826667-3.413333 6.826667 0 17.066667 6.826666 23.893333l81.92 40.96-61.44 34.133334c-6.826667 3.413333-10.24 13.653333-6.826666 23.893333 3.413333 6.826667 10.24 10.24 13.653333 10.24 3.413333 0 6.826667 0 10.24-3.413333l61.44-34.133334-6.826667 92.16c0 10.24 6.826667 17.066667 17.066667 17.066667s17.066667-6.826667 17.066667-17.066667l13.653333-112.64 54.613333-30.72-6.826666 92.16c0 10.24 6.826667 17.066667 17.066666 17.066667s17.066667-6.826667 17.066667-17.066667l6.826667-112.64 44.373333-27.306666 157.013333 95.573333v47.786667l-95.573333 64.853333c-6.826667 6.826667-10.24 17.066667-3.413333 23.893333s17.066667 10.24 23.893333 3.413334l75.093333-51.2v61.44l-95.573333 64.853333c-6.826667 6.826667-10.24 17.066667-3.413333 23.893333 6.826667 6.826667 17.066667 10.24 23.893333 3.413334l75.093333-51.2V989.866667c0 10.24 6.826667 17.066667 17.066667 17.066666s17.066667-6.826667 17.066667-17.066666v-71.68l75.093333 51.2c3.413333 3.413333 6.826667 3.413333 10.24 3.413333 6.826667 0 10.24-3.413333 13.653333-6.826667 6.826667-6.826667 3.413333-17.066667-3.413333-23.893333l-95.573333-64.853333v-61.44l75.093333 51.2c3.413333 3.413333 6.826667 3.413333 10.24 3.413333 6.826667 0 10.24-3.413333 13.653333-6.826667 6.826667-6.826667 3.413333-17.066667-3.413333-23.893333l-95.573333-64.853333v-47.786667l157.013333-95.573333 44.373333 27.306666 6.826667 112.64c0 10.24 6.826667 17.066667 17.066667 17.066667s17.066667-10.24 17.066666-17.066667l-6.826666-92.16 54.613333 30.72 6.826667 112.64c0 10.24 6.826667 17.066667 17.066666 17.066667s17.066667-10.24 17.066667-17.066667l-6.826667-92.16 61.44 34.133334c3.413333 0 6.826667 3.413333 10.24 3.413333 6.826667 0 10.24-3.413333 13.653334-10.24 3.413333-6.826667 3.413333-17.066667-6.826667-23.893333l-61.44-34.133334 81.92-40.96c6.826667-3.413333 10.24-13.653333 6.826667-23.893333 0-6.826667-10.24-10.24-20.48-3.413333z m-273.066667-27.306667L512 696.32l-153.6-92.16v-184.32L512 327.68l153.6 92.16v184.32z" fill="#707070" p-id="1416"></path></svg>